<svg aria-hidden="true" style="position:absolute;width:0;height:0;overflow:hidden" xmlns="http://www.w3.org/2000/svg">
  <defs>
    <symbol id="icon-antenna" viewBox="0 0 32 32">
      <path fill="#2e2f42" style="fill:var(--color1, #2e2f42)" d="m30.77 22.095-8.445-8.505.94-4.615c.24.095.5.145.76.145h.005a2.16 2.16 0 0 0 2.185-2.135 2.153 2.153 0 0 0-2.135-2.18 2.16 2.16 0 0 0-2.06 2.88l-4.96.605L8.97.16C8.87.055 8.735 0 8.595 0S8.32.055 8.22.155l-1.51 1.5c-.21.21-.21.55 0 .755l.81.825A14.955 14.955 0 0 0 10.04 20.9c.045.04.095.075.145.095-.03.18-.05.365-.05.55v6.185h-6.4A2.672 2.672 0 0 0 1.07 30.4v1.065c0 .295.235.535.53.535h24.535c.295 0 .535-.24.535-.535V30.4A2.676 2.676 0 0 0 24 27.73h-6.4v-2.74a15.26 15.26 0 0 0 3.05.32 14.856 14.856 0 0 0 7.04-1.785l.82.825c.1.1.235.155.375.16.14 0 .275-.06.375-.155l1.51-1.505a.531.531 0 0 0 0-.755zM23.275 6.23a1.067 1.067 0 1 1 .755 1.825h-.005a1.067 1.067 0 0 1-.745-1.825h-.005zM22.02 9.735l-.595 2.945-1.175-1.18 1.77-1.765zm-.605-.9-1.92 1.905-1.485-1.49 3.405-.415zM24 28.8c.885 0 1.6.715 1.6 1.6v.53H2.135v-.53c0-.885.715-1.6 1.6-1.6H24zm-7.465-2.135v1.065H11.2v-1.065h5.335zM11.2 25.6v-4.055c0-1.295 1.2-2.345 2.67-2.345s2.665 1.05 2.665 2.345V25.6H11.2zm6.4-1.7v-2.355c0-1.885-1.675-3.415-3.73-3.415a3.816 3.816 0 0 0-3.285 1.785A13.866 13.866 0 0 1 8.31 4.03l18.6 18.71a13.824 13.824 0 0 1-9.31 1.16zm11.29-.68-.75-.76L7.835 2.035l.755-.75 7.935 7.98.01.01 13.11 13.19-.755.755z"/>
      <path fill="#4d5ae5" style="fill:var(--color2, #4d5ae5)" d="M13.875 20.265h-.005c-.885 0-1.605.715-1.605 1.595 0 .885.715 1.605 1.6 1.605h.005a1.6 1.6 0 0 0 .005-3.2zm.37 1.975c-.1.1-.235.16-.375.16a.536.536 0 0 1 0-1.07.531.531 0 0 1 .37.91h.005z"/>
    </symbol>
    <symbol id="icon-astronaut" viewBox="0 0 32 32">
      <path fill="#4d5ae5" style="fill:var(--color2, #4d5ae5)" d="M31.97 4.52a.533.533 0 0 0-.43-.36l-1.91-.28-.855-1.73c-.18-.365-.775-.365-.955 0l-.855 1.73-1.91.28a.533.533 0 0 0-.295.91l1.38 1.345-.325 1.905c-.035.2.05.4.21.52.165.12.385.135.565.04l1.705-.895 1.71.895c.08.04.165.065.25.065a.53.53 0 0 0 .315-.105.527.527 0 0 0 .21-.52l-.325-1.905 1.38-1.345a.536.536 0 0 0 .135-.55zm-2.46 1.33a.532.532 0 0 0-.155.47l.19 1.115-1-.525a.528.528 0 0 0-.25-.06c-.085 0-.17.02-.245.06l-1 .525.19-1.115a.532.532 0 0 0-.155-.47l-.81-.79 1.12-.165a.527.527 0 0 0 .4-.29l.5-1.015.5 1.015c.08.155.23.265.405.29l1.12.165-.81.79zM25.065 20.52h1.065v1.065h-1.065V20.52zM25.065 22.655h1.065v1.065h-1.065v-1.065zM26.13 21.585h1.07v1.07h-1.07v-1.07zM24 21.585h1.065v1.07H24v-1.07zM21.33 26.385h1.07v1.07h-1.07v-1.07zM21.33 28.52h1.07v1.065h-1.07V28.52zM22.4 27.455h1.065v1.065H22.4v-1.065z"/>
      <path fill="#4d5ae5" style="fill:var(--color2, #4d5ae5)" d="M20.265 27.455h1.065v1.065h-1.065v-1.065zM14.93 24.255H16v1.065h-1.07v-1.065zM14.93 26.385H16v1.07h-1.07v-1.07zM16 25.32h1.065v1.065H16V25.32zM13.865 25.32h1.065v1.065h-1.065V25.32zM4.795 6.12h1.07v1.065h-1.07V6.12zM4.795 8.255h1.07V9.32h-1.07V8.255zM5.865 7.185H6.93v1.07H5.865v-1.07zM3.73 7.185h1.065v1.07H3.73v-1.07z"/>
      <path fill="#2e2f42" style="fill:var(--color1, #2e2f42)" d="M24.71 14.155a1.78 1.78 0 0 0-2.525-.35l-1.255.96-1.895 1.415-1.36-.54c2.425-1.085 4.115-3.51 4.115-6.32 0-3.82-3.125-6.935-6.96-6.935-3.84 0-6.96 3.115-6.96 6.935a6.84 6.84 0 0 0 1.12 3.76l-2.765-.025H6.22c-.01 0-.015.005-.025.005a.567.567 0 0 0-.155.03c-.01.005-.025.01-.04.015-.005 0-.01 0-.015.005L2.75 14.705l-1.895.915c-.02.005-.04.02-.065.035a1.78 1.78 0 0 0 .46 3.18 1.788 1.788 0 0 0 1.38-.125l1.385-.74L6.28 16.8l1.355-.005-5.44 5.415-1.34 1.335a1.66 1.66 0 0 0 1.18 2.84c.425 0 .855-.16 1.18-.485l1.315-1.31 1.74-1.3.9.9-1.76 1.755h-.005l-1.335 1.33c-.32.315-.49.735-.49 1.18s.17.865.49 1.18a1.678 1.678 0 0 0 2.36 0l3.48-3.47 1.01-1-.005-.005c.01-.005.02-.005.025-.015l5.165-5.655 3.47.49a.609.609 0 0 0 .265-.03c.015-.01.03-.015.05-.025.015-.01.04-.015.055-.025l3.215-2.135c.01-.01.015-.02.03-.03.01-.01.025-.015.04-.025l1.27-1.19a1.78 1.78 0 0 0 .21-2.365zM2.13 17.77a.727.727 0 0 1-.985-.31.708.708 0 0 1 .21-.9l1.315-.63.315.92.135.39-.99.53zm3.495-1.83-1.55.8-.255-.745-.18-.54 2.025-1-.04 1.485zm15.1-6.62c0 .92-.22 1.785-.6 2.56l-4.18-1.9a1.863 1.863 0 0 0-.79-1.39l1.465-4.86c2.38.76 4.105 2.975 4.105 5.59zm-11.79 0c0-3.235 2.645-5.865 5.895-5.865.255 0 .5.02.745.05l-1.43 4.755c-.02 0-.04-.005-.06-.005-1.03 0-1.87.835-1.87 1.865s.84 1.865 1.87 1.865c.695 0 1.295-.38 1.62-.945l3.86 1.755a5.882 5.882 0 0 1-4.735 2.39c-3.25 0-5.895-2.63-5.895-5.865zm5.955.8c0 .44-.36.8-.805.8s-.805-.36-.805-.8c0-.44.36-.8.805-.8s.805.36.805.8zM2.46 25.145a.605.605 0 0 1-1.03-.425c0-.16.065-.305.18-.42l.96-.96.85.85-.96.955zm3.215 3.73a.611.611 0 0 1-.855.005.594.594 0 0 1 0-.845l.965-.96.4.4.45.445-.96.955zM9.16 25.41h-.005L7.39 27.17l-.85-.85 1.765-1.755c.04-.04.065-.09.09-.135.005-.015.02-.025.025-.04.015-.04.02-.085.025-.13.005-.025.015-.045.015-.07 0-.035-.015-.07-.02-.105s-.005-.065-.02-.1c-.02-.05-.055-.09-.09-.135-.01-.01-.015-.025-.025-.04l-1.61-1.6c-.015-.015-.04-.025-.055-.04-.03-.02-.06-.04-.09-.055s-.06-.025-.09-.035c-.035-.01-.07-.015-.105-.02-.035 0-.065.005-.095.005-.035.005-.07.01-.105.02s-.065.03-.095.045c-.02.015-.04.015-.06.03l-1.775 1.325-.9-.9 2.4-2.385 4.36 4.29-.925.92zm6.815-7.02c-.015 0-.03.005-.045.005-.04-.005-.075 0-.115.005a.24.24 0 0 0-.085.025.44.44 0 0 0-.1.045c-.03.02-.055.035-.08.06-.015.01-.03.015-.04.03l-4.7 5.145-4.33-4.255 2.835-2.82a.531.531 0 0 0-.38-.91l-2.22.015.03-1.61 3.105.025a6.948 6.948 0 0 0 4.98 2.105c.435 0 .865-.045 1.28-.125.04.03.08.065.13.085l2.41.96.15.76.18.885-3.005-.43zm4.045.18-.315-1.56 1.445-1.08.38.505.57.755-2.08 1.38zm3.75-2.83-.835.785L22 15.29l.835-.64c.155-.12.35-.17.54-.145.195.03.365.13.48.285.22.295.18.7-.085.95z"/>
      <path fill="#2e2f42" style="fill:var(--color1, #2e2f42)" d="m13.6 18.54-2.145-2.13a.525.525 0 0 0-.75 0L8.56 18.54a.541.541 0 0 0 0 .76l2.145 2.13c.105.105.24.155.375.155s.275-.05.375-.155L13.6 19.3a.541.541 0 0 0 0-.76zm-2.52 1.76-1.385-1.38 1.385-1.38 1.39 1.38-1.39 1.38zM17.16 5.07l-.255 1.035c.07.015 1.735.45 1.735 2.15h1.07c0-2.02-1.665-2.97-2.55-3.185zM18.64 9.32h1.07v1.065h-1.07V9.32z"/>
    </symbol>
    <symbol id="icon-facebook" viewBox="0 0 32 32">
      <path fill="#f4f4fd" style="fill:var(--color3, #f4f4fd)" d="M21.32 5.3h2.92V.22C23.74.14 22 0 19.98 0c-4.2 0-7.1 2.64-7.1 7.5V12H8.24v5.68h4.64V32h5.7V17.68h4.46l.72-5.68h-5.18V8.08c0-1.66.44-2.78 2.74-2.78z"/>
    </symbol>
    <symbol id="icon-Group" viewBox="0 0 32 32">
      <path d="M30.208 13.69a2.044 2.044 0 0 0-1.379-.815 2.057 2.057 0 0 0-1.559.407l-1.46 1.117-2.205 1.647-1.583-.628c2.822-1.263 4.788-4.079 4.788-7.354C26.81 3.619 23.174 0 18.711 0c-4.468 0-8.099 3.619-8.099 8.064 0 1.612.477 3.113 1.303 4.375l-3.217-.029h-.006c-.012 0-.017.006-.029.006a.638.638 0 0 0-.227.052c-.006 0-.012.006-.017.006L4.655 14.33v.006L2.45 15.395c-.023.006-.047.023-.076.041a2.072 2.072 0 0 0-.692 2.671 2.066 2.066 0 0 0 1.856 1.129c.337 0 .669-.081.977-.244l1.612-.861 2.636-1.361 1.577-.006-6.33 6.301-1.559 1.553a1.933 1.933 0 0 0 1.373 3.304c.495 0 .995-.186 1.373-.564l1.53-1.524 2.025-1.513 1.047 1.047-2.048 2.042h-.006l-1.553 1.548c-.372.367-.57.855-.57 1.373s.198 1.007.57 1.373a1.954 1.954 0 0 0 2.746 0l4.049-4.038 1.175-1.164-.006-.006c.012-.006.023-.006.029-.017l6.01-6.58 4.038.57a.687.687 0 0 0 .308-.035c.017-.006.035-.017.058-.029.017-.012.047-.017.064-.029l3.741-2.484c.012-.012.017-.023.035-.035.012-.012.029-.017.047-.029l1.478-1.385a2.07 2.07 0 0 0 .244-2.752zM3.933 17.897a.845.845 0 0 1-1.147-.361.825.825 0 0 1 .244-1.047l1.53-.733.367 1.071.157.454-1.152.617zM8 15.767l-1.804.931-.297-.867-.209-.628 2.356-1.164-.047 1.728zm17.571-7.703a6.741 6.741 0 0 1-.698 2.979l-4.864-2.211a2.167 2.167 0 0 0-.919-1.617l1.705-5.655c2.769.884 4.777 3.462 4.777 6.505zm-13.719 0c0-3.764 3.078-6.825 6.86-6.825.297 0 .582.023.867.058L17.915 6.83c-.023 0-.047-.006-.07-.006-1.199 0-2.176.972-2.176 2.17s.977 2.17 2.176 2.17c.809 0 1.507-.442 1.885-1.1l4.492 2.042a6.845 6.845 0 0 1-5.51 2.781c-3.782 0-6.86-3.06-6.86-6.825zm6.929.931c0 .512-.419.931-.937.931s-.937-.419-.937-.931.419-.931.937-.931.937.419.937.931zM4.317 26.479a.7.7 0 0 1-.989 0 .695.695 0 0 1-.209-.495c0-.18.076-.355.209-.489l1.117-1.117.989.989-1.117 1.111zm3.741 4.346a.716.716 0 0 1-.995 0c-.128-.134-.204-.308-.204-.495s.076-.361.204-.489l1.123-1.117.465.465.524.518-1.117 1.117zm4.055-4.038h-.006l-2.054 2.048-.989-.989 2.054-2.042c.047-.047.076-.105.105-.157.006-.017.023-.029.029-.047.017-.047.023-.099.029-.151.006-.029.017-.052.017-.081 0-.041-.017-.081-.023-.122s-.006-.076-.023-.111a.685.685 0 0 0-.105-.163c-.012-.012-.017-.029-.029-.047l-1.873-1.862c-.017-.017-.047-.029-.064-.047-.035-.023-.07-.047-.105-.064s-.07-.029-.105-.041c-.041-.012-.081-.017-.122-.023-.041 0-.076.006-.111.006a1.047 1.047 0 0 0-.122.023c-.041.017-.076.035-.111.052-.023.017-.047.017-.07.035L6.37 24.546l-1.047-1.047 2.793-2.775 5.073 4.992-1.076 1.071zm7.931-8.169c-.017 0-.035.006-.052.006-.047 0-.087 0-.134.006a.477.477 0 0 0-.099.029.517.517 0 0 0-.116.052c-.035.023-.064.041-.093.07-.017.012-.035.023-.047.035l-5.469 5.987-5.039-4.951 3.299-3.281a.62.62 0 0 0-.442-1.059l-2.583.017.035-1.873 3.613.035a8.104 8.104 0 0 0 5.795 2.444 7.88 7.88 0 0 0 1.489-.145.52.52 0 0 0 .151.099l2.804 1.117.175.884.209 1.03-3.497-.5zm4.707.21-.367-1.815 1.681-1.257.442.588.663.879-2.42 1.606zm4.363-3.293-.972.913-1.088-1.437.972-.745a.84.84 0 0 1 .628-.163.83.83 0 0 1 .46 1.431z"/>
    </symbol>
    <symbol id="icon-instagram" viewBox="0 0 32 32">
      <path fill="#f4f4fd" style="fill:var(--color3, #f4f4fd)" d="M31.96 9.4c-.08-1.7-.36-2.88-.74-3.88a7.963 7.963 0 0 0-1.86-2.84c-.8-.82-1.76-1.44-2.82-1.84-1.02-.4-2.18-.68-3.88-.74C20.94 0 20.4 0 16.04 0c-4.34 0-4.88 0-6.58.08S6.58.44 5.58.82a7.963 7.963 0 0 0-2.84 1.86C1.92 3.48 1.3 4.44.9 5.5.5 6.52.22 7.7.14 9.4s-.1 2.24-.1 6.6c0 4.34.02 4.88.1 6.58s.36 2.88.74 3.9a8.063 8.063 0 0 0 1.86 2.82c.8.82 1.76 1.46 2.82 1.86 1.02.38 2.18.66 3.88.74 1.72.08 2.26.08 6.6.08s4.9 0 6.6-.08c1.7-.08 2.86-.36 3.88-.74a8.172 8.172 0 0 0 4.68-4.68c.4-1.02.68-2.2.74-3.9.08-1.7.1-2.24.1-6.58 0-4.36 0-4.9-.08-6.6zm-2.88 13.06c-.08 1.56-.34 2.4-.56 2.98a5.35 5.35 0 0 1-3.04 3.04c-.56.2-1.4.48-2.96.54-1.68.08-2.2.1-6.46.1-4.28 0-4.78-.02-6.46-.1-1.58-.06-2.42-.34-2.98-.54-.7-.26-1.32-.68-1.84-1.2s-.94-1.14-1.18-1.84c-.22-.56-.5-1.42-.56-2.98-.08-1.68-.1-2.18-.1-6.46 0-4.26.02-4.78.1-6.46.06-1.56.34-2.4.56-2.96.24-.7.66-1.34 1.2-1.84.5-.54 1.14-.94 1.82-1.2.58-.22 1.42-.48 2.98-.54 1.68-.08 2.2-.1 6.46-.1 4.28 0 4.78.02 6.46.1 1.56.06 2.42.32 2.98.54.68.26 1.32.66 1.84 1.2.52.52.94 1.14 1.18 1.84.22.56.48 1.4.56 2.96.08 1.68.1 2.2.1 6.46 0 4.28-.02 4.78-.1 6.46z"/>
      <path fill="#f4f4fd" style="fill:var(--color3, #f4f4fd)" d="M16.04 7.78c-4.52 0-8.22 3.68-8.22 8.22s3.7 8.22 8.22 8.22c4.54 0 8.22-3.68 8.22-8.22s-3.68-8.22-8.22-8.22zm0 13.54c-2.94 0-5.32-2.38-5.32-5.32 0-2.96 2.38-5.34 5.32-5.34 2.96 0 5.34 2.38 5.34 5.34 0 2.94-2.38 5.32-5.34 5.32zM26.52 7.44a1.92 1.92 0 1 1-3.841-.001 1.92 1.92 0 0 1 3.841.001z"/>
    </symbol>
    <symbol id="icon-linkedin" viewBox="0 0 32 32">
      <path fill="#f4f4fd" style="fill:var(--color3, #f4f4fd)" d="M31.98 32v-.02H32V20.26c0-5.74-1.24-10.18-7.96-10.18-3.22 0-5.38 1.78-6.28 3.46h-.08v-2.92H11.3v21.36h6.64V21.42c0-2.8.52-5.48 3.98-5.48 3.4 0 3.44 3.18 3.44 5.64V32h6.62zM.52 10.62h6.64V32H.52V10.62zM3.84 0C1.72 0 0 1.72 0 3.84s1.72 3.88 3.84 3.88 3.84-1.76 3.84-3.88S5.96 0 3.84 0z"/>
    </symbol>
    <symbol id="icon-twitter" viewBox="0 0 32 32">
      <path fill="#f4f4fd" style="fill:var(--color3, #f4f4fd)" d="M32 6.06c-1.2.52-2.46.88-3.78 1.04 1.36-.8 2.38-2.08 2.88-3.62-1.28.76-2.68 1.28-4.16 1.58A6.565 6.565 0 0 0 22.14 3c-3.62 0-6.56 2.94-6.56 6.56 0 .52.06 1.02.16 1.48-5.46-.26-10.28-2.88-13.52-6.86-.56.98-.9 2.12-.9 3.32 0 2.28 1.18 4.28 2.92 5.46-1.06-.02-2.1-.34-2.98-.82v.08c0 3.18 2.28 5.84 5.26 6.44-.52.14-1.1.22-1.72.22-.42 0-.84-.02-1.24-.12.86 2.6 3.26 4.52 6.14 4.58-2.24 1.74-5.08 2.8-8.14 2.8-.54 0-1.06-.02-1.56-.1C2.9 27.92 6.34 29 10.06 29c12.06 0 18.66-10 18.66-18.68 0-.28 0-.56-.02-.84C30 8.56 31.1 7.4 32 6.06z"/>
    </symbol>
    <symbol id="icon-Vector" viewBox="0 0 31 32">
      <path d="M30.605 15.3C30.605 6.845 23.75-.005 15.3 0 6.845 0-.005 6.855 0 15.305c0 6.66 4.305 12.55 10.645 14.575a.636.636 0 0 0 .53-.065.648.648 0 0 0 .285-.355l3.865-12.25a1.915 1.915 0 0 0 1.905-1.925 1.917 1.917 0 0 0-2.745-1.71L9.38 8.47a.64.64 0 0 0-.905.015.644.644 0 0 0 0 .885l5.105 5.11c-.39.8-.165 1.765.535 2.31l-3.68 11.67C3.155 25.78-.57 17.705 2.11 10.43 4.79 3.15 12.865-.575 20.14 2.105c7.28 2.68 11.005 10.755 8.325 18.035-1.31 3.555-4 6.43-7.46 7.97l-.4-1.875a.636.636 0 0 0-1.05-.34L15.72 29.32a.635.635 0 0 0-.05.9c.075.085.17.15.28.185l4.9 1.56a.632.632 0 0 0 .8-.41.67.67 0 0 0 .02-.33l-.39-1.835a15.26 15.26 0 0 0 9.325-14.09zM15.3 14.66a.638.638 0 1 1 0 1.275c-.35 0-.635-.635-.635-.635s.285-.64.635-.64zm2.105 14.865 2.18-1.95.605 2.84-2.785-.89z"/>
    </symbol>
  </defs>
</svg>
